<?xml version="1.0" standalone="no"?>
<!DOCTYPE svg PUBLIC "-//W3C//DTD SVG 20010904//EN"
 "http://www.w3.org/TR/2001/REC-SVG-20010904/DTD/svg10.dtd">
<svg version="1.0" xmlns="http://www.w3.org/2000/svg"
 width="1126.000000pt" height="1126.000000pt" viewBox="0 0 1126.000000 1126.000000"
 preserveAspectRatio="xMidYMid meet">

<g transform="translate(0.000000,1126.000000) scale(0.100000,-0.100000)"
fill="#000000" stroke="none">
<path d="M190 9461 c-73 -22 -136 -78 -167 -146 -17 -38 -18 -198 -21 -3650
-1 -2421 1 -3628 8 -3665 15 -79 55 -139 120 -177 l54 -33 5441 0 5440 0 45
21 c55 25 95 62 123 114 l22 40 3 3645 c2 3354 1 3648 -14 3694 -22 64 -85
128 -149 149 -45 16 -448 17 -5464 16 -2979 0 -5427 -4 -5441 -8z m3230 -3446
l0 -1275 -600 0 -600 0 0 190 0 190 410 0 410 0 0 355 0 355 -410 0 -410 0 0
190 0 190 410 0 410 0 0 350 0 350 -410 0 -410 0 0 190 0 190 600 0 600 0 0
-1275z m5668 3 l-3 -1273 -597 -3 -598 -2 0 190 0 190 410 0 410 0 0 355 0
355 -410 0 -410 0 0 190 0 190 410 0 410 0 0 350 0 350 -410 0 -410 0 0 190 0
190 600 0 600 0 -2 -1272z m1044 -2602 c64 -19 110 -57 144 -118 28 -52 29
-57 29 -198 0 -116 -4 -154 -18 -192 -23 -60 -100 -131 -159 -147 -32 -9 -466
-11 -1768 -9 l-1725 3 -40 22 c-22 12 -54 36 -72 55 -55 57 -63 90 -63 258 0
168 8 201 63 258 33 35 73 59 117 73 14 4 795 8 1736 8 1423 1 1719 -1 1756
-13z"/>
</g>
</svg>
